:SAMPLES-PER-SECOND 30
:FULLY-SPECIFIED
:DEGREES
1622
root  37.2651 39.7497 2.39 179.295 20.9036 -177.915
RightUpLeg  -9.49188 -9.74158 -2.36965
RightLeg  11.1767 -5.38888 5.92926
RightFoot  0.070776 -0.0953966 0.949384
RightToes  0.000481921 0.542163 -0.142578
Spine  4.56859 -0.856313 11.5717
Spine1  10.3684 -0.0114445 0.196312
HEad  -25.5562 52.5685 -27.8213
LeftShoulder1  10.1527 -14.2545 -49.9155
LeftArm  -6.781 10.6703 -15.009
LeftForeArm  26.4147 -6.00162 -6.3872
LeftHand  -0.25398 0.0180481 5.50724
RightShoulder  5.8516 9.47846 38.9877
RightArm  -13.024 -16.0996 32.0279
RightForeArm  10.1934 10.6817 5.35085
RightHand  -1.50903 5.87223 -15.8525
LeftUpLeg  2.42927 1.74296 4.66429
LeftLeg  34.0515 -6.3612 -4.25516
LeftFoot  -4.68884 0.570656 -9.29755
LeftToes  1.06245e-005 4.65869e-005 -8.65517e-006
1623
root  37.6124 39.7027 1.96835 179.751 18.8449 -177.804
RightUpLeg  -9.46461 -10.1761 -2.35458
RightLeg  12.4871 -6.86479 5.70459
RightFoot  -1.47974 -0.0925877 0.956356
RightToes  0.000481921 0.542163 -0.142578
Spine  5.01068 -0.636752 13.1819
Spine1  10.7794 0.559248 -0.252629
HEad  -26.4734 49.9431 -27.8846
LeftShoulder1  9.94258 -14.0454 -49.4658
LeftArm  -5.05107 14.7536 -14.2252
LeftForeArm  27.835 -10.1426 -6.40058
LeftHand  -0.25398 0.0180481 5.50724
RightShoulder  5.86695 9.50378 39.0166
RightArm  -10.9966 -18.3266 31.076
RightForeArm  10.7337 10.5932 5.68583
RightHand  -1.53687 5.94948 -16.0314
LeftUpLeg  -1.48252 2.11067 5.38471
LeftLeg  39.7992 -4.92494 -4.00612
LeftFoot  -1.07565 0.998862 -11.0716
LeftToes  1.06245e-005 4.65869e-005 -8.65517e-006
1624
root  37.9264 39.7031 1.5516 179.95 16.6462 -178.001
RightUpLeg  -9.11274 -10.5566 -2.59844
RightLeg  13.4086 -8.47734 5.25076
RightFoot  -2.85485 -0.100263 1.10053
RightToes  0.000481921 0.542163 -0.142578
Spine  5.33722 -0.314401 14.1262
Spine1  10.9961 1.07671 -0.352253
HEad  -25.5503 47.3583 -26.5072
LeftShoulder1  9.70372 -13.8204 -48.9032
LeftArm  -3.20443 18.3095 -14.5654
LeftForeArm  25.1975 -13.6677 -5.72618
LeftHand  -0.25398 0.0180481 5.50724
RightShoulder  5.88248 9.52351 39.0652
RightArm  -9.19028 -19.5781 29.9819
RightForeArm  13.7867 9.38516 5.89175
RightHand  -1.44094 5.54602 -15.5835
LeftUpLeg  -4.83938 2.53762 5.47246
LeftLeg  44.0316 -2.54229 -2.23658
LeftFoot  0.837338 1.18118 -11.1067
LeftToes  1.06245e-005 4.65869e-005 -8.65517e-006
1625
root  38.2177 39.7831 1.12039 179.917 14.5524 -178.611
RightUpLeg  -8.21936 -10.8914 -3.23686
RightLeg  13.5174 -9.8904 4.79931
RightFoot  -3.82 -0.120087 1.44195
RightToes  0.000481921 0.542163 -0.142578
Spine  5.68978 0.0647357 14.3133
Spine1  10.8198 1.5271 -0.404957
HEad  -23.7164 45.2022 -24.8362
LeftShoulder1  9.43151 -13.5195 -48.3669
LeftArm  -3.04117 21.5023 -15.6566
LeftForeArm  21.9345 -16.4642 -4.84981
LeftHand  -0.25398 0.0180481 5.50724
RightShoulder  5.87887 9.52999 39.0173
RightArm  -7.92567 -20.0271 29.0947
RightForeArm  18.2097 7.65118 5.84269
RightHand  -1.27766 4.89561 -14.7117
LeftUpLeg  -7.428 3.6303 4.95481
LeftLeg  46.1886 0.223627 0.641229
LeftFoot  0.539844 1.02102 -9.80818
LeftToes  1.06245e-005 4.65869e-005 -8.65517e-006
1626
root  38.4786 39.9056 0.682077 179.884 12.492 -179.488
RightUpLeg  -7.13913 -11.2329 -4.13556
RightLeg  13.1524 -11.25 4.41934
RightFoot  -4.33442 -0.129986 1.63784
RightToes  0.000481921 0.542163 -0.142578
Spine  5.97246 0.411474 14.1399
Spine1  10.3574 1.91228 -0.717415
HEad  -21.9141 43.539 -23.6186
LeftShoulder1  9.14948 -13.1737 -47.8875
LeftArm  -4.69534 24.1448 -17.0705
LeftForeArm  20.2904 -18.0476 -4.27854
LeftHand  -0.25398 0.0180481 5.50724
RightShoulder  5.85269 9.49694 38.9344
RightArm  -7.29347 -20.0487 28.5238
RightForeArm  21.4974 6.34482 5.62398
RightHand  -1.21313 4.58155 -14.4086
LeftUpLeg  -9.60228 5.48576 4.03856
LeftLeg  46.3428 2.41509 3.1051
LeftFoot  -0.777182 0.77485 -8.32421
LeftToes  1.06245e-005 4.65869e-005 -8.65517e-006
1627
root  38.6943 40.0127 0.251597 -179.957 10.3199 179.659
RightUpLeg  -6.23787 -11.6123 -5.03537
RightLeg  12.8076 -12.7991 4.08214
RightFoot  -4.76224 -0.134671 1.78012
RightToes  0.000481921 0.542163 -0.142578
Spine  6.01834 0.662603 14.0099
Spine1  9.90705 2.19759 -1.24786
HEad  -20.4285 41.9552 -22.5373
LeftShoulder1  8.94582 -12.9062 -47.5797
LeftArm  -7.06696 26.1324 -18.5394
LeftForeArm  19.972 -18.4077 -4.01674
LeftHand  -0.25398 0.0180481 5.50724
RightShoulder  5.80066 9.40427 38.8581
RightArm  -7.34321 -19.7891 28.1093
RightForeArm  21.9817 5.95618 5.50762
RightHand  -1.27441 4.70697 -14.9299
LeftUpLeg  -11.698 7.95112 3.00341
LeftLeg  44.8861 3.11222 3.71885
LeftFoot  -1.85203 0.636883 -7.54167
LeftToes  1.06245e-005 4.65869e-005 -8.65517e-006
1628
root  38.8679 40.0829 -0.169844 -179.691 8.05671 179.014
RightUpLeg  -5.40273 -11.9852 -5.77782
RightLeg  12.5509 -14.5304 3.8135
RightFoot  -5.36149 -0.141151 2.00412
RightToes  0.000481921 0.542163 -0.142578
Spine  5.90503 0.820763 13.8971
Spine1  9.61994 2.33295 -1.66816
HEad  -19.4973 40.3449 -21.678
LeftShoulder1  8.87974 -12.7846 -47.58
LeftArm  -9.09634 27.5924 -20.0135
LeftForeArm  19.8063 -18.1976 -3.87789
LeftHand  -0.25398 0.0180481 5.50724
RightShoulder  5.72785 9.28652 38.7091
RightArm  -7.5752 -19.1201 27.6706
RightForeArm  19.8628 6.39978 5.62297
RightHand  -1.35578 4.95663 -15.4913
LeftUpLeg  -13.6324 10.9783 1.99175
LeftLeg  42.1726 2.32434 2.64839
LeftFoot  -2.47198 0.58509 -7.34858
LeftToes  1.06245e-005 4.65869e-005 -8.65517e-006
1629
root  39.0133 40.1376 -0.585888 -179.526 5.82964 178.552
RightUpLeg  -4.30622 -12.2493 -6.36751
RightLeg  12.1158 -16.2944 3.65573
RightFoot  -5.92459 -0.14309 2.17148
RightToes  0.000481921 0.542163 -0.142578
Spine  5.87222 0.933458 13.5953
Spine1  9.4225 2.35935 -1.8565
HEad  -19.0131 38.6603 -20.9478
LeftShoulder1  8.90887 -12.7682 -47.7871
LeftArm  -10.5012 28.6442 -21.5992
LeftForeArm  19.4223 -17.797 -3.81043
LeftHand  -0.25398 0.0180481 5.50724
RightShoulder  5.66275 9.19995 38.5107
RightArm  -7.66204 -17.8802 27.0811
RightForeArm  16.9488 7.27853 5.90422
RightHand  -1.39139 5.13878 -15.6234
LeftUpLeg  -15.1253 14.5138 0.926754
LeftLeg  38.3072 1.26056 1.43213
LeftFoot  -2.85222 0.534977 -6.97168
LeftToes  1.06245e-005 4.65869e-005 -8.65517e-006
1630
root  39.132 40.2068 -0.998671 -179.491 3.7783 178.128
RightUpLeg  -2.91029 -12.3499 -6.91782
RightLeg  11.3143 -17.9263 3.6141
RightFoot  -6.18924 -0.148402 2.36293
RightToes  0.000481921 0.542163 -0.142578
Spine  5.93138 1.06238 13.0765
Spine1  9.29723 2.41505 -2.05306
HEad  -18.6765 36.8513 -20.1279
LeftShoulder1  8.9561 -12.7977 -47.9559
LeftArm  -11.5856 29.2835 -23.3552
LeftForeArm  19.4367 -17.0199 -3.77746
LeftHand  -0.25398 0.0180481 5.50724
RightShoulder  5.6378 9.16726 38.4328
RightArm  -7.5514 -15.9459 26.271
RightForeArm  14.7143 8.11636 6.18326
RightHand  -1.43494 5.39354 -15.7336
LeftUpLeg  -16.0451 18.5071 -0.408419
LeftLeg  33.1716 1.33009 1.26474
LeftFoot  -3.04054 0.457322 -6.04705
LeftToes  1.06245e-005 4.65869e-005 -8.65517e-006
1631
root  39.2113 40.2818 -1.42063 -179.408 2.03425 177.653
RightUpLeg  -1.57833 -12.3528 -7.50714
RightLeg  10.4277 -19.3248 3.61966
RightFoot  -6.31149 -0.167227 2.8292
RightToes  0.000481921 0.542163 -0.142578
Spine  5.84351 1.24766 12.5038
Spine1  9.33485 2.60347 -2.46529
HEad  -18.2922 35.1011 -19.2546
LeftShoulder1  8.99043 -12.8456 -47.9996
LeftArm  -12.5557 29.5593 -25.1353
LeftForeArm  20.6972 -15.8212 -3.72466
LeftHand  -0.25398 0.0180481 5.50724
RightShoulder  5.64757 9.16737 38.4994
RightArm  -7.34062 -13.2728 25.3226
RightForeArm  13.4578 8.5269 6.37308
RightHand  -1.53076 5.80701 -16.1596
LeftUpLeg  -16.5549 23.4256 -2.272
LeftLeg  26.7451 2.44439 1.75569
LeftFoot  -2.94827 0.381198 -4.95251
LeftToes  1.06245e-005 4.65869e-005 -8.65517e-006
1632
root  39.2356 40.3486 -1.87051 -179.181 0.675758 177.27
RightUpLeg  -0.393865 -12.3269 -8.00348
RightLeg  9.47347 -20.5404 3.70694
RightFoot  -6.37394 -0.189747 3.37303
RightToes  0.000481921 0.542163 -0.142578
Spine  5.51707 1.47674 12.104
Spine1  9.44674 2.92395 -3.12824
HEad  -17.7472 33.6215 -18.2808
LeftShoulder1  9.01402 -12.8953 -47.9796
LeftArm  -13.2327 29.7256 -26.7148
LeftForeArm  23.3015 -14.6776 -3.64573
LeftHand  -0.25398 0.0180481 5.50724
RightShoulder  5.64649 9.16282 38.4803
RightArm  -7.23859 -10.0671 24.5124
RightForeArm  12.8846 8.46273 6.51417
RightHand  -1.61714 6.12166 -16.5983
LeftUpLeg  -16.6506 29.3574 -4.39556
LeftLeg  19.158 3.70751 1.53916
LeftFoot  -2.14592 0.325044 -3.88648
LeftToes  1.06245e-005 4.65869e-005 -8.65517e-006
1633
root  39.2045 40.3897 -2.35471 -178.959 -0.362261 177.103
RightUpLeg  0.815757 -12.2532 -8.31989
RightLeg  8.49995 -21.576 3.88542
RightFoot  -6.41064 -0.207556 3.80299
RightToes  0.000481921 0.542163 -0.142578
Spine  5.18584 1.68092 11.9798
Spine1  9.45289 3.31279 -4.00471
HEad  -17.1443 32.4484 -17.2453
LeftShoulder1  9.02753 -12.9404 -47.9191
LeftArm  -13.4853 30.0391 -27.9961
LeftForeArm  26.2657 -14.0716 -3.58286
LeftHand  -0.25398 0.0180481 5.50724
RightShoulder  5.60403 9.15878 38.1893
RightArm  -7.29487 -6.74459 24.0739
RightForeArm  12.4806 8.31235 6.62997
RightHand  -1.62878 6.11305 -16.7239
LeftUpLeg  -14.9468 27.0781 -3.53115
LeftLeg  10.1974 13.3902 -1.98165
LeftFoot  -0.334861 0.224618 -2.35083
LeftToes  1.06245e-005 4.65869e-005 -8.65517e-006
